<svg xmlns:xlink="http://www.w3.org/1999/xlink" xmlns="http://www.w3.org/2000/svg" class="icon icon-one-perc-for-the-planet" style="width: 53px; height: 22px" width="53"  height="22" ><defs><symbol viewBox="0 0 53 22" id="icon-one-perc-for-the-planet" xmlns="http://www.w3.org/2000/svg"><g clip-path="url(#eza)"><path d="M15.931 9.356a.506.506 0 1 0-1.012.001.506.506 0 0 0 1.012 0Z"></path><path d="m21.999 10.655-.007-.18-.005-.096a9.434 9.434 0 0 0-.01-.168l-.008-.097a6.325 6.325 0 0 0-.023-.259 9.883 9.883 0 0 0-.065-.509l-.013-.083a9.232 9.232 0 0 0-.028-.17l-.018-.095-.03-.158-.02-.097a8.506 8.506 0 0 0-.035-.162l-.02-.086a17.026 17.026 0 0 0-.052-.219l-.01-.036a9.108 9.108 0 0 0-.062-.23l-.026-.086c-.014-.052-.03-.102-.045-.154l-.031-.098a7.761 7.761 0 0 0-.13-.385l-.033-.093a8.585 8.585 0 0 0-.068-.178l-.035-.089a7.611 7.611 0 0 0-.076-.185l-.041-.096-.058-.13a4.757 4.757 0 0 0-.047-.104l-.056-.12a50.142 50.142 0 0 1-.11-.223l-.05-.103a8 8 0 0 0-.156-.288l-.07-.127-.064-.108a6.031 6.031 0 0 0-.127-.212l-.06-.095-.07-.112-.06-.09-.076-.113a9.512 9.512 0 0 0-.223-.316l-.043-.058-.09-.12-.055-.07c-.03-.04-.06-.079-.092-.117l-.056-.07a8.996 8.996 0 0 0-.096-.117l-.052-.061-.104-.122-.028-.03c-.127-.146-.26-.288-.395-.427l-.042-.043-.12-.119-.046-.046-.124-.118-.04-.037a11.428 11.428 0 0 0-.621-.537l-.025-.02-.148-.116-.035-.027c-.05-.039-.101-.077-.152-.114l-.024-.018a11.213 11.213 0 0 0-.894-.59l-.022-.012c-.06-.035-.118-.07-.178-.103a10.816 10.816 0 0 0-1.004-.5 10.812 10.812 0 0 0-1.253-.457l-.01-.004a9.179 9.179 0 0 0-.2-.056l-.014-.004A11.02 11.02 0 0 0 6.49.967h-.002L6.43.993l-.153.072L6.2 1.1l-.19.095-.062.032-.144.076-.076.041a9.656 9.656 0 0 0-.184.103c-.02.013-.042.025-.063.037a7.756 7.756 0 0 0-.137.082l-.074.044a10.693 10.693 0 0 0-.373.238l-.071.048-.171.119-.067.047-.122.09-.07.051c-.055.042-.11.083-.163.125l-.068.054-.115.092-.068.056a9.912 9.912 0 0 0-.155.132l-.068.059-.107.095-.067.06-.147.137-.068.066a18.67 18.67 0 0 0-.304.304l-.068.071-.092.1-.064.069c-.044.048-.087.097-.13.147l-.067.077-.084.1-.071.085-.113.14-.067.085-.076.1a9.402 9.402 0 0 0-.084.111l-.09.123a5.957 5.957 0 0 0-.133.19 12.574 12.574 0 0 0-.286.44l-.092.15a10.96 10.96 0 0 0-.12.208l-.054.094-.091.168-.05.095c-.02.037-.038.074-.057.112l-.045.09a12.7 12.7 0 0 0-.09.185l-.04.089-.054.118-.038.086-.085.2-.034.083a9.388 9.388 0 0 0-.05.125l-.03.08-.079.216-.027.079-.045.131-.023.072c-.025.076-.05.154-.073.232l-.022.075a14.417 14.417 0 0 0-.12.448l-.019.073-.033.143a12.352 12.352 0 0 0-.067.318l-.013.07-.027.148-.002.013a10.72 10.72 0 0 0-.049.31l-.01.07-.02.15A10.997 10.997 0 0 0 5.6 20.587l.06.033c.066.037.132.074.2.11l.079.041.121.062.076.037c.085.042.169.082.254.122l.033.015a6.854 6.854 0 0 0 .198.087 10.268 10.268 0 0 0 1.011.381h.001A11.026 11.026 0 0 0 11 22c3 0 5.719-1.201 7.703-3.148l.208-.21.008-.008c.068-.07.135-.141.2-.213l.004-.004c.134-.146.264-.296.39-.45l.003-.003c.06-.073.118-.147.176-.221l.017-.023c.056-.072.11-.144.165-.218l.02-.028.158-.222.016-.024a10.55 10.55 0 0 0 .3-.46l.002-.002.135-.225.004-.007.127-.223.006-.011c.041-.074.08-.149.12-.224l.007-.015c.038-.074.076-.148.112-.222l.01-.02c.036-.073.07-.146.104-.22l.012-.026.097-.217.013-.03.09-.216.014-.036a10.951 10.951 0 0 0 .098-.254l.075-.21.017-.047.068-.207a10.075 10.075 0 0 0 .079-.256 8.967 8.967 0 0 0 .072-.259l.017-.066.049-.196.017-.072.043-.192.017-.078.037-.188.016-.085.031-.184.015-.09c.01-.06.017-.121.025-.182l.014-.095.02-.179.012-.1.016-.178.009-.102.012-.183.006-.1c.004-.066.006-.132.008-.198l.004-.086a10.879 10.879 0 0 0 0-.548l-.003-.084H22Zm-8.775 8.908H8.93V6.272l-1.6-.015.004-.619.01-1.533 1.274-1.136.797-.71h3.809v17.304Zm1.075-10.276a1.24 1.24 0 0 1 1.238-1.238 1.239 1.239 0 1 1-1.238 1.238Zm.502 4.01 3.848-5.27h.895l-.205.28-2.667 3.654-.975 1.336H14.8Zm2.724-1.24c0-.682.555-1.237 1.237-1.237a1.239 1.239 0 1 1-.108 2.47 1.237 1.237 0 0 1-1.13-1.233Z"></path><path d="M19.218 12.138a.506.506 0 1 0-1.012 0 .506.506 0 0 0 1.012 0ZM25.25 8.742h2.092V7.695h-2.093v-.773h2.314V5.816h-3.54v4.552h1.226V8.742ZM30.591 10.62c1.449 0 2.535-1.075 2.535-2.401v-.014c0-1.327-1.073-2.389-2.522-2.389-1.448 0-2.535 1.076-2.535 2.403v.013c0 1.326 1.073 2.389 2.522 2.389Zm-1.187-2.415c0-.667.476-1.234 1.187-1.234.711 0 1.207.58 1.207 1.247v.013c0 .667-.476 1.234-1.194 1.234-.717 0-1.2-.58-1.2-1.247v-.013ZM34.927 8.99h.568l.94 1.378h1.496L36.817 8.78c.58-.24.96-.702.96-1.397V7.37c0-.448-.14-.8-.413-1.06-.314-.312-.808-.494-1.522-.494h-2.21v4.551h1.295V8.99Zm0-2.081h.848c.433 0 .7.182.7.54v.012c0 .332-.253.54-.694.54h-.854V6.91ZM40.746 10.368h1.198V6.922h1.297V5.816h-3.793v1.106h1.298v3.446ZM46.814 7.52h-1.582V5.815H44v4.552h1.232v-1.73h1.582v1.73h1.232V5.816h-1.232V7.52ZM50.087 9.295v-.722h2.244v-.995h-2.244v-.69h2.477V5.817h-3.76v4.552h3.794V9.295h-2.511ZM26.077 11.38h-2.054v4.804h1.328V14.81h.657c1.192 0 2.061-.597 2.061-1.73v-.013c0-1.064-.78-1.689-1.993-1.689Zm.664 1.763c0 .378-.288.625-.76.625h-.63v-1.27h.623c.48 0 .767.22.767.632v.013ZM32.368 15.017h-2.412v-3.638h-1.381v4.805h3.793v-1.167ZM34.642 11.38l-2.021 4.804h1.383l.34-.852h1.83l.346.852h1.411l-2.02-4.805h-1.269Zm.087 2.923.536-1.356.53 1.356h-1.066ZM41.666 13.919l-1.983-2.54h-1.246v4.805h1.322v-2.636l2.059 2.636h1.17v-4.805h-1.322v2.54ZM45.282 14.29h2.243v-1.05h-2.243v-.728h2.477v-1.133H44v4.805h3.793V15.05h-2.51v-.762ZM48.299 12.546h1.47v3.638h1.359v-3.638h1.47v-1.167h-4.3v1.167ZM52.074 15.596c0-.119-.095-.17-.228-.17h-.26v.505h.154v-.15h.065l.11.15h.177l-.13-.176a.161.161 0 0 0 .112-.159Zm-.236.071h-.098v-.12h.097c.054 0 .083.021.083.06 0 .035-.03.06-.083.06Z"></path><path d="M51.8 15.2c-.279 0-.5.229-.5.5v.003a.5.5 0 0 0 1-.002v-.004a.497.497 0 0 0-.5-.496V15.2Zm.416.5a.416.416 0 1 1-.832.002v-.003a.416.416 0 1 1 .832-.003v.003Z"></path></g><defs><clipPath id="eza"><path d="M0 0h53v22H0z"></path></clipPath></defs></symbol></defs><use xlink:href="#icon-one-perc-for-the-planet"></use></svg>